<?xml version="1.0" standalone="no"?>
<!DOCTYPE svg PUBLIC "-//W3C//DTD SVG 20010904//EN"
 "http://www.w3.org/TR/2001/REC-SVG-20010904/DTD/svg10.dtd">
<svg version="1.0" xmlns="http://www.w3.org/2000/svg"
 width="437.000000pt" height="207.000000pt" viewBox="0 0 437.000000 207.000000"
 preserveAspectRatio="xMidYMid meet">

<g transform="translate(0.000000,207.000000) scale(0.100000,-0.100000)"
fill="#000000" stroke="none">
<path d="M0 1965 l0 -105 2185 0 2185 0 0 105 0 105 -2185 0 -2185 0 0 -105z"/>
<path d="M1140 1080 l0 -360 208 2 207 3 3 62 3 63 -163 2 -163 3 -3 65 c-5
116 -14 109 156 112 l147 3 0 55 0 55 -147 3 c-169 3 -162 -2 -156 103 l3 54
157 3 c156 2 158 3 164 26 3 12 4 40 2 62 l-3 39 -207 3 -208 2 0 -360z"/>
<path d="M1655 1427 c-3 -6 -4 -167 -3 -357 l3 -345 45 0 45 0 3 128 3 128 95
-3 96 -3 53 -125 54 -125 42 -3 c23 -2 46 1 51 6 5 5 -13 60 -48 137 -36 82
-53 133 -48 140 72 96 94 179 74 276 -16 73 -43 116 -90 140 -30 16 -58 19
-203 19 -125 0 -169 -3 -172 -13z m344 -139 c27 -29 36 -78 21 -123 -17 -52
-56 -67 -173 -63 l-92 3 -3 103 -3 102 115 0 c105 0 117 -2 135 -22z"/>
<path d="M2235 1418 c-3 -13 -4 -174 -3 -358 l3 -335 181 -3 c174 -2 182 -2
215 21 55 37 79 89 79 176 0 78 -26 156 -56 168 -20 7 -17 30 7 65 30 41 37
143 15 200 -30 77 -45 83 -253 86 l-182 3 -6 -23z m335 -126 c35 -28 32 -98
-5 -129 -25 -22 -34 -23 -128 -21 l-102 3 -3 69 c-2 38 -1 75 2 83 4 10 31 13
110 13 85 0 108 -3 126 -18z m17 -276 c23 -20 28 -32 28 -71 0 -39 -5 -51 -28
-71 -27 -23 -34 -24 -140 -22 l-112 3 -3 79 c-2 44 -1 85 2 93 4 10 33 13 115
13 102 0 112 -2 138 -24z"/>
<path d="M2817 1434 c-4 -4 -7 -166 -7 -361 l0 -353 210 0 210 0 0 65 0 65
-162 2 -163 3 -3 65 c-5 116 -14 109 156 112 l147 3 0 55 0 55 -145 3 c-100 2
-147 6 -152 15 -10 16 -10 118 0 134 6 9 54 13 162 15 l155 3 0 60 0 60 -201
3 c-110 1 -203 -1 -207 -4z"/>
<path d="M1537 263 c-4 -3 -7 -64 -7 -135 l0 -128 60 0 c48 0 58 3 54 14 -3 8
-22 16 -42 18 l-37 3 -3 118 c-2 108 -7 128 -25 110z"/>
<path d="M1777 263 c-6 -9 -77 -247 -77 -257 0 -14 31 -5 37 12 9 24 23 32 60
32 24 0 37 -7 49 -25 19 -29 48 -34 40 -7 -9 35 -49 168 -61 207 -12 37 -37
57 -48 38z m43 -146 c0 -25 -3 -28 -27 -25 -23 2 -27 7 -25 28 2 14 8 38 14
54 l12 30 13 -30 c6 -16 12 -42 13 -57z"/>
<path d="M1951 173 c0 -54 6 -114 13 -133 13 -35 13 -35 72 -35 77 0 84 13 84
158 0 88 -3 107 -15 107 -12 0 -15 -18 -15 -102 -1 -113 -10 -138 -53 -138
-38 0 -50 30 -55 142 -4 74 -8 98 -18 98 -11 0 -14 -21 -13 -97z"/>
<path d="M2217 263 c-4 -3 -7 -64 -7 -135 l0 -128 70 0 70 0 21 42 c30 58 24
142 -15 192 -25 33 -31 36 -80 36 -29 0 -56 -3 -59 -7z m108 -56 c37 -32 44
-99 15 -145 -18 -29 -25 -33 -58 -30 l-37 3 -3 83 c-3 88 5 112 39 112 10 0
30 -10 44 -23z"/>
<path d="M2467 263 c-4 -3 -7 -64 -7 -135 0 -120 1 -128 19 -128 15 0 21 8 23
33 5 48 40 50 62 3 9 -20 23 -36 31 -36 18 0 19 11 4 44 -9 20 -8 32 5 60 22
48 21 107 -5 140 -17 22 -28 26 -73 26 -29 0 -56 -3 -59 -7z m101 -49 c45 -31
14 -110 -40 -102 -19 2 -23 10 -26 47 -2 24 -1 50 2 57 7 19 36 18 64 -2z"/>
<path d="M2688 265 c-3 -3 10 -46 28 -96 19 -49 34 -107 34 -129 0 -29 4 -40
15 -40 11 0 15 11 15 35 0 20 13 70 29 113 43 113 45 122 27 122 -8 0 -24 -24
-38 -60 -12 -33 -27 -59 -32 -57 -4 1 -18 27 -30 57 -20 51 -35 68 -48 55z"/>
<path d="M13 203 c-9 -3 -13 -34 -13 -104 l0 -99 565 0 566 0 -3 103 -3 102
-550 2 c-302 1 -556 -1 -562 -4z"/>
<path d="M3263 203 c-9 -3 -13 -34 -13 -104 l0 -99 560 0 560 0 0 105 0 105
-547 -1 c-302 0 -554 -3 -560 -6z"/>
</g>
</svg>
