<?xml version="1.0" standalone="no"?>
<!DOCTYPE svg PUBLIC "-//W3C//DTD SVG 20010904//EN"
 "http://www.w3.org/TR/2001/REC-SVG-20010904/DTD/svg10.dtd">
<svg version="1.0" xmlns="http://www.w3.org/2000/svg"
 width="500.000000pt" height="500.000000pt" viewBox="0 0 500.000000 500.000000"
 preserveAspectRatio="xMidYMid meet">

<g transform="translate(0.000000,500.000000) scale(0.100000,-0.100000)"
fill="#000000" stroke="none">
<path d="M511 3487 c-8 -11 -10 -245 -9 -883 l3 -869 433 -3 432 -2 -2 167 -3
168 -253 3 -253 2 -10 28 c-6 16 -9 90 -7 180 2 122 6 155 18 162 8 5 119 10
248 10 l232 0 0 170 0 170 -238 0 c-172 0 -241 3 -250 12 -14 14 -17 314 -4
335 6 9 74 13 262 15 l255 3 0 170 0 170 -421 3 c-347 2 -423 0 -433 -11z"/>
<path d="M1417 3488 c-16 -12 -17 -63 -15 -883 l3 -870 170 0 170 0 5 335 c3
218 9 334 15 331 6 -3 109 -153 230 -335 l221 -331 504 -3 c555 -3 550 -3 678
59 63 32 133 98 162 155 8 16 24 42 35 57 l20 29 5 -149 5 -148 430 0 430 0 0
165 0 165 -257 5 c-141 3 -260 9 -265 13 -4 5 -9 80 -11 167 -5 217 -28 200
273 200 l235 0 0 170 0 170 -236 0 c-143 0 -243 4 -255 10 -18 10 -19 23 -19
168 0 110 4 162 12 170 9 9 80 12 260 12 l248 0 10 26 c6 14 10 88 10 164 0
127 -2 140 -19 150 -30 15 -823 14 -839 -2 -9 -9 -12 -143 -12 -540 0 -299 -4
-528 -9 -528 -5 0 -12 8 -15 18 -34 92 -110 160 -238 211 -27 10 -41 51 -18
51 20 0 83 78 113 140 31 64 32 68 32 210 0 114 -4 155 -18 194 -41 111 -114
179 -244 226 -52 19 -87 22 -345 27 -224 5 -291 3 -303 -7 -13 -11 -15 -107
-15 -812 l0 -799 -23 18 c-13 9 -52 58 -86 108 -34 49 -115 164 -181 254 -65
91 -120 176 -123 189 -4 19 1 27 22 36 105 46 189 141 237 271 24 64 27 83 27
220 0 129 -3 158 -22 209 -53 147 -130 224 -286 288 -46 18 -78 21 -370 25
-258 4 -323 2 -338 -9z m1601 -303 c98 -13 163 -106 147 -211 -7 -52 -27 -93
-57 -121 -31 -28 -118 -55 -165 -51 l-38 3 -3 185 c-2 165 -1 186 15 198 9 6
24 10 32 8 9 -3 40 -8 69 -11z m-1050 -24 c79 -41 112 -105 112 -218 0 -62 -5
-84 -26 -123 -44 -81 -82 -99 -221 -107 l-83 -4 0 235 0 236 90 0 c70 0 100
-4 128 -19z m1197 -728 c72 -38 105 -98 105 -195 0 -90 -33 -145 -110 -182
-37 -18 -191 -33 -234 -22 l-26 6 0 204 c0 154 3 206 13 210 6 3 57 4 112 2
77 -2 109 -8 140 -23z"/>
<path d="M1447 1421 c-9 -16 -17 -38 -17 -49 0 -12 -4 -23 -9 -27 -17 -10 -54
-146 -43 -157 6 -6 12 -1 15 14 6 22 46 48 75 48 24 0 72 -40 72 -61 0 -10 5
-19 11 -19 7 0 9 12 6 33 -6 37 -56 179 -78 220 l-15 27 -17 -29z m38 -81 c4
-16 10 -32 15 -35 20 -12 -3 -35 -35 -35 -44 0 -53 26 -24 74 24 40 34 39 44
-4z"/>
<path d="M2895 1426 c-3 -11 -4 -75 -3 -141 l3 -120 65 -3 c59 -3 68 0 90 23
25 26 50 86 50 120 0 32 -25 95 -46 115 -13 12 -40 19 -87 23 -62 4 -68 3 -72
-17z m140 -31 c25 -24 30 -52 25 -130 -2 -44 -37 -74 -89 -77 -40 -3 -45 0
-52 22 -11 39 -10 169 1 191 16 29 84 26 115 -6z"/>
<path d="M3411 1437 c-12 -12 -16 -239 -4 -251 4 -4 12 14 18 41 10 47 11 48
52 51 33 2 44 -1 57 -20 9 -12 16 -33 16 -46 0 -25 27 -59 38 -48 3 4 1 16 -6
26 -7 11 -12 32 -12 47 0 16 -4 34 -9 42 -5 8 -3 27 6 48 15 37 10 85 -10 101
-19 15 -133 22 -146 9z m120 -27 c13 -7 19 -21 19 -43 0 -45 -10 -55 -56 -63
-31 -4 -45 -2 -57 11 -19 19 -22 57 -7 86 12 21 68 26 101 9z"/>
<path d="M4016 1406 c-35 -55 -57 -76 -63 -59 -2 6 -18 30 -34 53 -46 64 -53
37 -9 -36 36 -57 40 -71 40 -129 0 -108 29 -81 31 29 0 22 9 55 19 71 33 52
52 94 48 105 -2 6 -16 -9 -32 -34z"/>
<path d="M940 1300 l0 -140 66 0 c79 0 86 22 8 30 l-49 5 -3 123 c-4 172 -22
158 -22 -18z"/>
<path d="M1864 1426 c-3 -9 -4 -58 -2 -110 3 -89 5 -97 32 -125 42 -43 94 -43
130 0 24 29 26 37 26 134 0 137 -17 145 -22 11 -2 -83 -7 -108 -21 -124 -29
-32 -54 -33 -87 -5 -30 24 -30 26 -30 123 0 91 -12 134 -26 96z"/>
<path d="M2378 1428 c-2 -7 -2 -69 0 -137 5 -135 22 -150 22 -19 0 42 4 79 10
83 7 5 110 -136 110 -151 0 -3 9 -14 19 -25 18 -20 19 -20 24 -2 3 10 2 72 -2
138 -8 112 -8 115 -10 40 -2 -103 -12 -121 -46 -80 -13 17 -24 33 -25 37 0 11
-83 128 -91 128 -4 0 -9 -6 -11 -12z"/>
</g>
</svg>
