<?xml version="1.0" standalone="no"?>
<!DOCTYPE svg PUBLIC "-//W3C//DTD SVG 20010904//EN"
 "http://www.w3.org/TR/2001/REC-SVG-20010904/DTD/svg10.dtd">
<svg version="1.0" xmlns="http://www.w3.org/2000/svg"
width="800px" height="12" viewBox="0 0 1059.000000 835.000000"
 preserveAspectRatio="xMidYMid meet">

<g transform="translate(0.000000,835.000000) scale(0.100000,-0.100000)"
fill="#000000" stroke="none">
<path d="M347 6802 c-16 -17 -17 -189 -17 -2269 0 -1238 3 -2258 6 -2267 6
-14 108 -16 1058 -16 805 0 1055 3 1064 12 16 16 17 819 2 849 -10 18 -28 19
-613 19 -464 0 -608 3 -627 13 -46 23 -49 54 -49 474 -1 440 2 462 61 482 21
7 219 11 589 11 l559 0 15 24 c14 21 15 75 13 429 -2 317 -6 409 -16 419 -10
10 -134 14 -597 16 l-584 2 -20 27 c-20 25 -21 37 -21 440 l0 414 25 24 24 25
615 0 c598 0 616 1 626 19 6 13 10 164 10 423 0 349 -2 407 -16 426 l-15 22
-1038 0 c-993 0 -1039 -1 -1054 -18z"/>
<path d="M2610 6813 c-14 -2 -31 -12 -37 -21 -18 -23 -19 -4512 -1 -4530 17
-17 809 -17 826 0 9 9 12 209 12 840 0 737 2 832 16 868 9 22 22 40 28 40 7 0
26 -24 41 -52 16 -29 39 -66 52 -81 12 -16 23 -33 23 -39 0 -6 14 -26 30 -45
17 -18 30 -38 30 -43 0 -6 19 -38 43 -73 23 -35 53 -81 65 -103 30 -49 59 -95
95 -148 15 -23 35 -54 45 -70 9 -16 31 -49 48 -75 17 -25 39 -62 49 -81 10
-19 27 -47 39 -61 12 -15 30 -41 41 -59 11 -19 34 -54 50 -80 17 -26 39 -61
50 -80 11 -18 35 -54 53 -81 17 -27 32 -52 32 -57 0 -4 13 -23 30 -42 16 -19
29 -40 30 -46 0 -6 12 -27 28 -47 15 -20 47 -70 72 -112 25 -42 54 -89 66
-103 12 -15 29 -43 39 -62 10 -19 34 -54 53 -78 l35 -42 1256 2 1256 3 90 32
c50 17 112 34 138 38 26 4 64 19 84 32 20 14 62 36 92 49 31 14 67 35 81 48
14 13 32 27 41 32 19 10 131 116 169 160 41 46 117 165 135 212 10 23 26 47
36 52 10 6 27 30 38 55 17 38 34 54 43 43 1 -2 4 -169 7 -371 5 -312 8 -369
21 -377 20 -13 2090 -13 2110 0 22 14 28 815 6 845 -14 19 -31 20 -623 25
-674 6 -655 4 -673 69 -6 21 -10 195 -10 418 0 319 3 389 15 420 28 71 -4 68
642 71 567 3 583 3 593 22 17 31 9 835 -8 852 -10 10 -137 14 -600 18 -323 3
-595 9 -605 14 -10 4 -22 17 -27 27 -13 24 -13 824 0 848 5 10 17 23 27 27 10
5 296 11 635 14 487 4 620 8 630 18 17 17 25 800 8 831 -5 11 -27 25 -48 31
-24 6 -378 10 -1040 10 l-1003 0 -24 -25 -25 -24 0 -1350 c0 -742 -3 -1356 -6
-1365 -10 -27 -24 -18 -43 27 -10 23 -27 50 -38 60 -11 10 -29 37 -39 60 -10
23 -30 56 -44 74 -14 18 -43 55 -65 83 -22 28 -53 61 -70 73 -16 11 -36 29
-43 39 -7 10 -37 30 -65 45 -29 14 -63 34 -75 44 -13 10 -61 30 -106 43 -91
28 -114 47 -123 98 -5 32 -2 38 33 64 40 29 120 110 165 167 34 43 119 201
119 222 0 9 14 51 30 92 27 67 32 95 42 249 14 206 0 512 -28 586 -8 23 -26
75 -39 113 -25 77 -72 170 -110 219 -65 83 -112 135 -128 141 -10 4 -38 24
-62 45 -24 21 -55 42 -67 46 -13 3 -41 19 -63 35 -22 16 -76 39 -120 53 -44
13 -106 34 -138 46 -84 30 -307 39 -953 40 -502 0 -543 -1 -563 -17 l-21 -18
-2 -2050 c-2 -1414 -6 -2056 -14 -2068 -9 -16 -14 -14 -57 19 -25 20 -58 55
-72 78 -14 22 -39 59 -55 81 -30 40 -119 173 -155 230 -10 16 -27 38 -37 49
-10 11 -18 23 -18 26 0 4 -16 27 -35 51 -19 24 -35 48 -35 53 0 4 -12 22 -26
40 -27 33 -37 47 -133 191 -33 50 -70 104 -81 120 -12 17 -30 44 -41 60 -10
17 -35 50 -54 75 -19 25 -42 59 -51 75 -9 17 -29 44 -43 62 -69 84 -124 183
-129 233 -6 61 4 74 71 96 29 9 66 29 82 44 17 15 44 35 60 43 50 25 275 258
275 284 0 6 13 27 29 47 17 21 35 54 42 74 6 20 22 53 35 72 12 19 28 57 34
83 6 27 21 75 35 106 17 42 28 98 39 203 29 272 30 348 7 565 -18 171 -26 214
-51 277 -17 41 -30 81 -30 89 0 32 -143 285 -171 302 -6 4 -18 19 -27 34 -16
25 -71 76 -174 162 -24 20 -63 45 -88 57 -25 12 -56 31 -70 42 -14 11 -52 28
-85 36 -32 9 -81 27 -107 40 -27 14 -81 30 -121 36 -72 10 -1525 21 -1577 11z
m3980 -801 c77 -15 105 -25 145 -54 81 -59 115 -98 157 -183 l39 -80 -4 -160
-3 -160 -41 -85 c-53 -111 -124 -181 -209 -206 -33 -9 -77 -26 -99 -37 -30
-15 -66 -21 -147 -25 -103 -4 -107 -4 -131 20 -36 36 -39 77 -35 534 3 385 4
403 23 424 45 51 91 53 305 12z m-2777 -12 c44 -7 92 -22 134 -45 36 -19 72
-35 78 -35 21 0 129 -125 144 -166 7 -21 25 -64 40 -94 25 -54 26 -59 26 -260
l0 -205 -45 -99 c-37 -84 -55 -110 -114 -168 -49 -48 -81 -71 -110 -79 -23 -6
-79 -24 -126 -40 -70 -23 -110 -29 -226 -35 -160 -8 -178 -3 -194 54 -6 23
-10 238 -10 587 0 482 2 553 16 573 15 21 21 22 167 22 84 0 183 -5 220 -10z
m2894 -1871 c94 -7 139 -16 168 -31 22 -11 64 -33 93 -47 49 -25 162 -138 162
-162 0 -6 14 -45 32 -87 31 -75 32 -80 32 -232 l0 -155 -42 -88 c-57 -119
-109 -170 -237 -233 l-100 -49 -233 -3 c-128 -2 -244 -1 -257 2 -14 4 -34 15
-45 26 -19 19 -20 35 -20 511 0 332 3 497 11 510 19 36 66 48 191 49 64 0 175
-5 245 -11z"/>
<path d="M6268 1502 c-16 -27 -18 -64 -18 -361 0 -410 -16 -376 176 -369 126
4 134 6 166 31 18 15 48 37 65 50 46 31 90 154 100 279 11 137 -67 327 -147
360 -14 6 -79 14 -145 19 -66 4 -133 10 -150 14 -26 6 -32 2 -47 -23z m255
-57 c59 -18 83 -34 113 -78 41 -62 55 -219 30 -348 -11 -59 -18 -72 -65 -118
l-52 -53 -92 -5 c-82 -5 -95 -3 -117 15 l-25 20 -3 259 c-2 244 -2 260 18 291
19 31 22 32 82 32 35 0 84 -7 111 -15z"/>
<path d="M7541 1498 l-31 -33 -2 -150 c-4 -276 3 -427 20 -457 30 -51 37 -36
46 95 7 88 25 132 58 141 78 20 191 -9 224 -59 8 -12 19 -57 23 -100 8 -68 13
-81 42 -111 18 -19 39 -34 46 -34 20 0 16 39 -7 67 -11 15 -20 41 -20 62 0 42
-22 143 -40 187 -12 28 -11 35 7 60 23 34 43 107 43 159 0 46 -27 140 -43 152
-26 20 -96 33 -192 36 -55 3 -110 8 -121 11 -17 6 -29 0 -53 -26z m272 -57
c25 -11 51 -30 58 -42 14 -28 7 -192 -10 -213 -17 -20 -90 -36 -166 -36 -60 0
-69 3 -96 29 -27 28 -29 34 -29 111 0 83 7 108 43 148 17 19 31 22 88 22 44 0
83 -7 112 -19z"/>
<path d="M2670 1463 c-33 -51 -45 -88 -55 -170 -4 -29 -11 -53 -16 -53 -13 0
-36 -50 -44 -95 -4 -22 -20 -67 -35 -100 -36 -76 -49 -175 -26 -194 14 -12 18
-9 31 22 8 20 15 40 15 45 0 14 32 39 85 68 41 21 58 25 94 20 25 -3 56 -14
70 -23 14 -10 39 -24 56 -33 22 -11 33 -27 45 -67 20 -71 36 -85 50 -48 14 38
5 94 -30 175 -15 36 -31 83 -34 105 -4 22 -18 57 -31 77 -14 21 -30 66 -36
105 -11 69 -73 203 -96 211 -7 2 -26 -18 -43 -45z m70 -145 c5 -13 16 -48 24
-79 9 -31 23 -62 31 -69 18 -15 19 -40 3 -74 -16 -36 -87 -55 -145 -40 -51 14
-58 136 -10 188 14 15 29 38 33 50 15 49 48 61 64 24z"/>
<path d="M8699 1486 c-11 -23 -10 -30 9 -54 12 -15 28 -42 36 -59 8 -18 28
-52 44 -75 16 -24 33 -54 37 -68 4 -14 18 -37 30 -52 20 -24 23 -39 27 -190 5
-166 17 -223 41 -199 8 8 14 73 17 180 6 161 7 170 31 202 15 19 30 45 34 59
4 13 23 47 41 73 19 27 34 55 34 62 0 8 12 27 26 44 18 22 24 40 22 62 -2 18
-7 34 -13 35 -13 4 -84 -89 -98 -130 -7 -18 -31 -54 -53 -80 -33 -38 -46 -47
-62 -42 -12 4 -24 16 -27 27 -4 10 -17 31 -29 47 -13 15 -33 48 -46 74 -13 26
-38 61 -56 79 l-33 32 -12 -27z"/>
<path d="M3706 1484 c-3 -9 -6 -126 -6 -262 0 -283 3 -295 95 -388 56 -57 100
-72 182 -59 37 5 55 17 99 60 81 79 84 94 84 385 0 229 -1 248 -19 264 -17 15
-19 15 -25 1 -3 -9 -6 -112 -7 -228 0 -261 -6 -302 -47 -336 -16 -14 -35 -36
-41 -48 -14 -27 -77 -39 -125 -23 -38 12 -98 79 -121 134 -12 27 -15 84 -15
250 0 214 -7 266 -36 266 -6 0 -15 -7 -18 -16z"/>
<path d="M4981 1482 c-10 -18 -5 -572 5 -641 4 -26 8 -31 17 -22 8 8 14 79 17
219 5 217 12 252 50 252 13 0 27 -15 44 -47 13 -27 33 -57 45 -67 12 -11 21
-27 21 -36 0 -9 9 -25 21 -36 12 -10 30 -37 42 -59 11 -22 30 -53 42 -70 13
-16 30 -46 39 -65 24 -52 75 -120 91 -120 27 0 32 66 27 355 -4 269 -11 349
-30 331 -4 -4 -9 -99 -12 -210 -4 -171 -8 -206 -23 -229 -24 -37 -52 -35 -66
5 -6 17 -22 45 -35 62 -13 17 -32 49 -43 71 -12 22 -30 48 -41 59 -12 10 -24
31 -27 47 -4 16 -15 35 -26 42 -10 8 -25 29 -33 48 -20 47 -84 129 -101 129
-8 0 -19 -8 -24 -18z"/>
<path d="M1406 1474 c-3 -9 -6 -162 -6 -340 0 -397 -15 -364 163 -364 131 0
163 5 170 24 12 32 -12 41 -122 46 -88 4 -114 9 -128 23 -16 16 -18 45 -21
300 -1 155 -4 292 -7 305 -6 26 -40 30 -49 6z"/>
</g>
</svg>
